<svg height='100px' width='100px'  fill="#000000" xmlns="http://www.w3.org/2000/svg" xmlns:xlink="http://www.w3.org/1999/xlink" version="1.1" x="0px" y="0px" viewBox="0 0 46 74.678" enable-background="new 0 0 46 74.678" xml:space="preserve"><path fill="#000000" d="M22.998,16.152c3.776,0,6.848,3.072,6.848,6.848v8.793H16.15V23C16.15,19.224,19.222,16.152,22.998,16.152   M22.998,14.248L22.998,14.248c-4.814,0-8.752,3.938-8.752,8.752v10.697H31.75V23C31.75,18.186,27.812,14.248,22.998,14.248  L22.998,14.248z M31.75,35.573H14.246h-1.111v1.875h1.111H31.75h1.111v-1.875H31.75z M29.846,39.323h-1.698V63.01h1.698V39.323z   M17.848,39.323H16.15v26.37h1.698V39.323z M25.847,39.323h-1.698v26.37h1.698V39.323z M21.847,39.323H20.15v30.354h1.698V39.323z   M10.238,22.339H5v1.322h5.238V22.339z M12.278,16.047l-4.536-2.619l-0.661,1.145l4.536,2.619L12.278,16.047z M17.19,11.618  l-2.619-4.536l-1.145,0.661l2.619,4.536L17.19,11.618z M23.659,10.238L23.659,5h-1.322l0.001,5.238H23.659z M32.57,7.741  L31.425,7.08l-2.618,4.536l1.145,0.661L32.57,7.741z M38.917,14.57l-0.661-1.145l-4.536,2.62l0.661,1.145L38.917,14.57z M41,23.657  l0-1.322l-5.238,0.001l0,1.322L41,23.657z"></path></svg>