<svg height='100px' width='100px'  fill="#000000" xmlns:x="http://ns.adobe.com/Extensibility/1.0/" xmlns:i="http://ns.adobe.com/AdobeIllustrator/10.0/" xmlns:graph="http://ns.adobe.com/Graphs/1.0/" xmlns="http://www.w3.org/2000/svg" xmlns:xlink="http://www.w3.org/1999/xlink" version="1.1" x="0px" y="0px" viewBox="0 0 64 64" enable-background="new 0 0 64 64" xml:space="preserve"><metadata><sfw xmlns="http://ns.adobe.com/SaveForWeb/1.0/"><slices></slices><sliceSourceBounds height="16384" width="16389" x="-8165" y="-8160" bottomLeftOrigin="true"></sliceSourceBounds></sfw></metadata><g><g><path d="M32,14c-6.617,0-12,5.383-12,12v16c0,1.104,0.896,2,2,2h2v8c0,1.104,0.896,2,2,2s2-0.896,2-2v-8h8v12c0,1.104,0.896,2,2,2    s2-0.896,2-2V44h2c1.104,0,2-0.896,2-2V26C44,19.383,38.617,14,32,14z M40,40H24V26c0-4.411,3.589-8,8-8s8,3.589,8,8V40z"></path><path d="M16,24h-2c-1.104,0-2,0.896-2,2s0.896,2,2,2h2c1.104,0,2-0.896,2-2S17.104,24,16,24z"></path><path d="M50,24h-2c-1.104,0-2,0.896-2,2s0.896,2,2,2h2c1.104,0,2-0.896,2-2S51.104,24,50,24z"></path><path d="M32,12c1.104,0,2-0.896,2-2V8c0-1.104-0.896-2-2-2s-2,0.896-2,2v2C30,11.104,30.896,12,32,12z"></path><path d="M22.101,16.102c0.781-0.781,0.781-2.047,0-2.829l-1.414-1.415c-0.781-0.781-2.047-0.781-2.829,0    c-0.781,0.781-0.781,2.047,0,2.829l1.414,1.415c0.391,0.391,0.902,0.586,1.415,0.586C21.198,16.687,21.71,16.492,22.101,16.102z"></path><path d="M46.142,11.858c-0.781-0.78-2.049-0.781-2.828,0l-1.414,1.415c-0.781,0.781-0.781,2.047,0,2.829    c0.391,0.39,0.902,0.585,1.414,0.585s1.024-0.195,1.414-0.586l1.414-1.415C46.923,13.905,46.923,12.639,46.142,11.858z"></path></g></g></svg>